<svg id="svg6" viewBox="0 0 16 16" xmlns="http://www.w3.org/2000/svg">
  <path id="base_color" d="m16 8a8 8 0 0 1-8 8 8 8 0 0 1-8-8 8 8 0 0 1  8-8 8 8 0 0 1  8 8z" fill="#161616"/>
  <path id="check_color" d="m8 0c-4.4057419.00000011-8.00000011 3.5942548-8 8-.00000011 4.405746 3.5942581 8.001953 8 8.001953 4.405741 0 8-3.596207 8-8.001953 0-4.4057452-3.594259-8-8-8zm0 2.1171875c3.261853 0 5.882812 2.6209577 5.882812 5.8828125 0 3.261855-2.620959 5.884766-5.882812 5.884766-3.2618527 0-5.8828126-2.622911-5.8828125-5.884766-.0000001-3.2618548 2.6209598-5.8828124 5.8828125-5.8828125zm-4 4.8828125v2h8v-2z" fill="#404040" overflow="visible"/>
</svg>
