<svg id="svg6" viewBox="0 0 16 16" xmlns="http://www.w3.org/2000/svg">
  <path id="base_color" d="m16 8a8 8 0 0 1-8 8 8 8 0 0 1-8-8 8 8 0 0 1  8-8 8 8 0 0 1  8 8z" fill="#161616"/>
  <path id="check_color" d="m7.9998597.00048979c-4.4057419.00000011-7.9992296 3.59348441-7.99922949 7.99922961-.00000011 4.4057456 3.59348759 8.0012966 7.99922949 8.0012966 4.4057413 0 7.9992293-3.595551 7.9992293-8.0012966 0-4.4057452-3.593488-7.99922961-7.9992293-7.99922961zm0 2.11659201c3.2618533 0 5.8826373 2.6207828 5.8826373 5.8826376 0 3.2618546-2.620784 5.8847046-5.8826373 5.8847046-3.2618527 0-5.8826376-2.62285-5.8826375-5.8847046-.0000001-3.2618548 2.6207848-5.8826375 5.8826375-5.8826376z" fill="#404040" overflow="visible"/>
  <path id="fg_color" d="m4 7h8v2h-8z" fill="#aaa"/>
</svg>
